<svg xmlns="http://www.w3.org/2000/svg" xmlns:xlink="http://www.w3.org/1999/xlink" width="1000" zoomAndPan="magnify" viewBox="0 0 750 374.999991" height="500" preserveAspectRatio="xMidYMid meet" version="1.0"><defs><g/></defs><g fill="#ffbd59" fill-opacity="1"><g transform="translate(98.08095, 320.11571)"><g><path d="M 112.46875 -104.109375 C 112.46875 -111.546875 108.078125 -115.265625 99.296875 -115.265625 C 90.523438 -115.265625 81.90625 -108.5 73.4375 -94.96875 C 64.96875 -81.4375 59.695312 -67.648438 57.625 -53.609375 C 58.039062 -48.859375 58.453125 -44.101562 58.859375 -39.34375 C 59.273438 -34.59375 59.484375 -29.945312 59.484375 -25.40625 C 59.484375 -14.457031 55.867188 -7.019531 48.640625 -3.09375 C 45.335938 -1.238281 42.1875 0.507812 39.1875 2.15625 C 36.195312 3.8125 32.738281 4.640625 28.8125 4.640625 C 24.882812 4.640625 21.421875 2.007812 18.421875 -3.25 C 15.429688 -8.519531 13.9375 -16.734375 13.9375 -27.890625 C 13.9375 -59.078125 16.210938 -86.132812 20.765625 -109.0625 C 27.785156 -144.59375 41.726562 -182.601562 62.59375 -223.09375 C 65.476562 -228.664062 69.707031 -231.398438 75.28125 -231.296875 C 80.863281 -231.191406 85.410156 -227.316406 88.921875 -219.671875 C 92.429688 -212.035156 94.132812 -205.632812 94.03125 -200.46875 C 93.925781 -195.300781 93.097656 -190.289062 91.546875 -185.4375 C 90.003906 -180.582031 88.046875 -175.832031 85.671875 -171.1875 C 83.296875 -166.539062 80.609375 -161.789062 77.609375 -156.9375 C 74.617188 -152.082031 71.675781 -146.863281 68.78125 -141.28125 L 64.140625 -118.984375 C 72.191406 -132.410156 83.035156 -141.394531 96.671875 -145.9375 C 101.628906 -147.59375 107.101562 -148.421875 113.09375 -148.421875 C 127.132812 -148.421875 137.769531 -145.269531 145 -138.96875 C 152.226562 -132.664062 155.84375 -123.78125 155.84375 -112.3125 C 155.84375 -100.851562 154.34375 -89.234375 151.34375 -77.453125 C 148.351562 -65.679688 146.1875 -57.265625 144.84375 -52.203125 C 143.507812 -47.148438 142.84375 -42.96875 142.84375 -39.65625 C 142.84375 -36.351562 143.976562 -34.703125 146.25 -34.703125 C 149.34375 -34.703125 153.160156 -36.664062 157.703125 -40.59375 C 162.253906 -44.519531 166.800781 -48.804688 171.34375 -53.453125 C 175.882812 -58.097656 180.066406 -62.378906 183.890625 -66.296875 C 187.710938 -70.222656 190.347656 -72.1875 191.796875 -72.1875 C 194.679688 -72.1875 196.125 -68.675781 196.125 -61.65625 C 196.125 -47.195312 189 -33.253906 174.75 -19.828125 C 150.789062 -5.785156 135.503906 1.234375 128.890625 1.234375 C 128.273438 1.234375 127.863281 1.128906 127.65625 0.921875 C 111.132812 0.921875 102.875 -12.296875 102.875 -38.734375 C 102.875 -50.085938 103.957031 -60.515625 106.125 -70.015625 C 108.289062 -79.523438 109.890625 -86.445312 110.921875 -90.78125 C 111.953125 -95.125 112.46875 -99.566406 112.46875 -104.109375 Z M 112.46875 -104.109375 "/></g></g></g><g fill="#ffbd59" fill-opacity="1"><g transform="translate(269.426307, 320.11571)"><g><path d="M 46.484375 0.921875 C 25.828125 0.921875 15.5 -18.390625 15.5 -57.015625 C 15.5 -78.078125 18.078125 -97.179688 23.234375 -114.328125 C 31.296875 -140.773438 40.382812 -154 50.5 -154 C 56.488281 -154 61.238281 -149.96875 64.75 -141.90625 C 67.644531 -135.707031 68.988281 -129.613281 68.78125 -123.625 C 68.78125 -115.363281 66.300781 -100.800781 61.34375 -79.9375 C 56.59375 -61.757812 54.21875 -50.5 54.21875 -46.15625 C 54.21875 -41.820312 55.300781 -38.828125 57.46875 -37.171875 C 59.644531 -35.523438 62.226562 -34.703125 65.21875 -34.703125 C 68.21875 -34.703125 71.988281 -36.664062 76.53125 -40.59375 C 81.070312 -44.519531 85.613281 -48.804688 90.15625 -53.453125 C 94.707031 -58.097656 98.894531 -62.378906 102.71875 -66.296875 C 106.539062 -70.222656 109.171875 -72.1875 110.609375 -72.1875 C 113.503906 -72.1875 114.953125 -68.675781 114.953125 -61.65625 C 114.953125 -47.195312 107.671875 -33.097656 93.109375 -19.359375 C 78.546875 -5.628906 63.003906 1.128906 46.484375 0.921875 Z M 59.1875 -179.09375 C 53.601562 -187.351562 50.8125 -196.234375 50.8125 -205.734375 C 50.8125 -215.234375 52.304688 -223.132812 55.296875 -229.4375 C 58.296875 -235.738281 61.140625 -240.382812 63.828125 -243.375 C 66.515625 -246.375 69.613281 -247.875 73.125 -247.875 C 78.90625 -247.875 84.171875 -243.585938 88.921875 -235.015625 C 93.671875 -226.441406 96.046875 -219.265625 96.046875 -213.484375 C 96.046875 -202.742188 92.273438 -194.328125 84.734375 -188.234375 C 77.203125 -182.140625 68.6875 -179.09375 59.1875 -179.09375 Z M 59.1875 -179.09375 "/></g></g></g><g fill="#ffbd59" fill-opacity="1"><g transform="translate(359.591748, 320.11571)"><g><path d="M 35.328125 -145.625 C 20.035156 -152.238281 12.390625 -158.644531 12.390625 -164.84375 C 12.390625 -168.144531 13.734375 -169.691406 16.421875 -169.484375 C 20.140625 -169.484375 24.375 -168.601562 29.125 -166.84375 C 33.875 -165.09375 38.726562 -163.703125 43.6875 -162.671875 C 60.625 -194.679688 79.832031 -215.644531 101.3125 -225.5625 C 108.539062 -228.875 115.773438 -230.628906 123.015625 -230.828125 C 137.265625 -230.828125 148.15625 -227.367188 155.6875 -220.453125 C 163.226562 -213.535156 167 -205.117188 167 -195.203125 C 167 -177.441406 157.394531 -163.707031 138.1875 -154 C 122.488281 -146.144531 101.109375 -141.289062 74.046875 -139.4375 C 64.335938 -115.46875 59.484375 -89.75 59.484375 -62.28125 C 59.484375 -41.832031 64.238281 -29.953125 73.75 -26.640625 C 80.351562 -24.367188 85.304688 -24.316406 88.609375 -26.484375 C 91.921875 -28.660156 94.503906 -31.554688 96.359375 -35.171875 C 98.222656 -38.785156 99.203125 -44.101562 99.296875 -51.125 C 99.398438 -58.144531 97.4375 -64.082031 93.40625 -68.9375 C 89.382812 -73.789062 85.515625 -78.285156 81.796875 -82.421875 C 83.660156 -89.234375 86.347656 -94.910156 89.859375 -99.453125 C 96.460938 -108.335938 102.140625 -112.78125 106.890625 -112.78125 C 111.640625 -112.78125 115.515625 -111.128906 118.515625 -107.828125 C 121.515625 -104.523438 123.941406 -100.394531 125.796875 -95.4375 C 127.648438 -90.476562 129.144531 -85.101562 130.28125 -79.3125 C 131.425781 -73.53125 132.71875 -68.160156 134.15625 -63.203125 C 135.601562 -58.242188 137.410156 -54.113281 139.578125 -50.8125 C 141.753906 -47.507812 144.648438 -45.859375 148.265625 -45.859375 C 151.878906 -45.859375 155.128906 -47.25 158.015625 -50.03125 C 160.910156 -52.820312 163.492188 -55.867188 165.765625 -59.171875 C 168.035156 -62.484375 170.097656 -65.53125 171.953125 -68.3125 C 173.816406 -71.101562 175.726562 -72.5 177.6875 -72.5 C 179.65625 -72.5 181.617188 -70.847656 183.578125 -67.546875 C 185.546875 -64.242188 186.53125 -61.144531 186.53125 -58.25 C 186.53125 -51.632812 183.273438 -43.78125 176.765625 -34.6875 C 170.253906 -25.601562 161.9375 -21.113281 151.8125 -21.21875 C 141.695312 -21.320312 133.851562 -23.441406 128.28125 -27.578125 C 124.769531 -18.898438 118.773438 -11.671875 110.296875 -5.890625 C 101.828125 -0.109375 89.796875 2.78125 74.203125 2.78125 C 58.609375 2.78125 45.234375 -1.242188 34.078125 -9.296875 C 20.648438 -19.003906 13.9375 -34.082031 13.9375 -54.53125 C 13.9375 -83.65625 21.066406 -114.019531 35.328125 -145.625 Z M 132.921875 -189.625 C 132.710938 -196.851562 130.078125 -200.46875 125.015625 -200.46875 C 119.960938 -200.46875 113.40625 -196.644531 105.34375 -189 C 97.289062 -181.363281 89.546875 -170.726562 82.109375 -157.09375 C 104.617188 -161.019531 120.007812 -167.9375 128.28125 -177.84375 C 131.164062 -181.5625 132.710938 -185.488281 132.921875 -189.625 Z M 132.921875 -189.625 "/></g></g></g><g fill="#ffbd59" fill-opacity="1"><g transform="translate(519.782565, 320.11571)"><g><path d="M 199.546875 -73.125 C 203.253906 -73.125 205.109375 -68.375 205.109375 -58.875 C 205.109375 -53.707031 202.941406 -47.457031 198.609375 -40.125 C 194.273438 -32.789062 188.644531 -26.078125 181.71875 -19.984375 C 174.800781 -13.890625 167.109375 -8.878906 158.640625 -4.953125 C 150.171875 -1.035156 141.910156 0.921875 133.859375 0.921875 C 122.910156 0.921875 115.578125 -8.679688 111.859375 -27.890625 C 106.484375 -19.003906 99.457031 -11.71875 90.78125 -6.03125 C 82.101562 -0.351562 70.484375 2.484375 55.921875 2.484375 C 41.359375 2.484375 29.632812 -2.054688 20.75 -11.140625 C 11.875 -20.234375 7.539062 -31.289062 7.75 -44.3125 C 7.75 -79.425781 19.421875 -107.101562 42.765625 -127.34375 C 52.671875 -135.8125 61.910156 -141.390625 70.484375 -144.078125 C 79.054688 -146.765625 88.09375 -148.109375 97.59375 -148.109375 C 107.101562 -148.109375 114.851562 -146.453125 120.84375 -143.140625 C 123.726562 -149.140625 127.03125 -152.140625 130.75 -152.140625 C 137.976562 -152.140625 144.847656 -148.988281 151.359375 -142.6875 C 157.867188 -136.382812 161.125 -130.441406 161.125 -124.859375 C 158.226562 -118.046875 153.992188 -109.890625 148.421875 -100.390625 C 146.765625 -90.890625 145.9375 -77.566406 145.9375 -60.421875 C 145.9375 -43.273438 148.101562 -34.703125 152.4375 -34.703125 C 157.8125 -34.703125 170.828125 -45.441406 191.484375 -66.921875 C 195.203125 -71.054688 197.890625 -73.125 199.546875 -73.125 Z M 53.296875 -54.53125 C 53.296875 -38.625 59.179688 -30.671875 70.953125 -30.671875 C 83.554688 -30.878906 93.988281 -37.59375 102.25 -50.8125 C 105.144531 -55.351562 107.519531 -60.929688 109.375 -67.546875 C 109.375 -90.679688 111.441406 -110.507812 115.578125 -127.03125 C 98.835938 -123.726562 84.269531 -115.671875 71.875 -102.859375 C 59.488281 -90.054688 53.296875 -73.945312 53.296875 -54.53125 Z M 53.296875 -54.53125 "/></g></g></g><g fill="#ffbd59" fill-opacity="1"><g transform="translate(700.119977, 320.11571)"><g/></g></g><g fill="#7ed957" fill-opacity="1"><g transform="translate(73.980473, 296.015232)"><g><path d="M 111.507812 -104.109375 C 111.507812 -110.898438 107.441406 -114.296875 99.304688 -114.296875 C 90.882812 -114.296875 82.535156 -107.679688 74.253906 -94.453125 C 65.855469 -81.039062 60.636719 -67.375 58.589844 -53.460938 L 57.632812 -53.605469 L 58.597656 -53.6875 L 59.835938 -39.433594 C 60.25 -34.65625 60.460938 -29.980469 60.460938 -25.40625 C 60.460938 -14.074219 56.675781 -6.355469 49.109375 -2.246094 C 45.808594 -0.390625 42.660156 1.363281 39.664062 3.015625 C 36.523438 4.75 32.90625 5.617188 28.816406 5.617188 C 24.515625 5.617188 20.773438 2.820312 17.59375 -2.773438 C 14.515625 -8.191406 12.976562 -16.5625 12.976562 -27.886719 C 12.976562 -59.140625 15.253906 -86.265625 19.808594 -109.253906 C 26.851562 -144.871094 40.824219 -182.964844 61.726562 -223.535156 C 64.804688 -229.46875 69.332031 -232.378906 75.3125 -232.269531 C 81.292969 -232.160156 86.125 -228.097656 89.804688 -220.085938 C 93.378906 -212.308594 95.113281 -205.765625 95.007812 -200.453125 C 94.902344 -195.195312 94.058594 -190.09375 92.480469 -185.148438 C 90.917969 -180.246094 88.933594 -175.445312 86.535156 -170.75 C 84.148438 -166.078125 81.449219 -161.304688 78.441406 -156.429688 C 75.457031 -151.59375 72.527344 -146.402344 69.644531 -140.84375 L 68.785156 -141.289062 L 69.734375 -141.09375 L 65.085938 -118.785156 L 64.136719 -118.980469 L 63.308594 -119.480469 C 71.488281 -133.109375 82.507812 -142.238281 96.367188 -146.855469 C 101.421875 -148.542969 107 -149.386719 113.09375 -149.386719 C 127.382812 -149.386719 138.234375 -146.15625 145.644531 -139.695312 C 153.097656 -133.203125 156.820312 -124.078125 156.820312 -112.320312 C 156.820312 -100.773438 155.3125 -89.074219 152.300781 -77.222656 L 145.792969 -51.96875 C 144.46875 -46.984375 143.808594 -42.882812 143.808594 -39.660156 C 143.808594 -37 144.621094 -35.671875 146.246094 -35.671875 C 149.105469 -35.671875 152.71875 -37.554688 157.078125 -41.324219 C 161.601562 -45.230469 166.128906 -49.496094 170.652344 -54.125 L 183.203125 -66.984375 C 187.210938 -71.101562 190.078125 -73.164062 191.796875 -73.164062 C 195.332031 -73.164062 197.101562 -69.328125 197.101562 -61.660156 C 197.101562 -46.921875 189.875 -32.742188 175.417969 -19.125 L 175.339844 -19.050781 L 175.242188 -18.996094 C 151.132812 -4.859375 135.683594 2.207031 128.898438 2.207031 C 128.007812 2.207031 127.367188 2.011719 126.972656 1.613281 L 127.65625 0.929688 L 127.65625 1.898438 C 110.488281 1.898438 101.902344 -11.644531 101.902344 -38.730469 C 101.902344 -50.164062 102.992188 -60.667969 105.179688 -70.242188 L 109.980469 -91.003906 C 111 -95.273438 111.507812 -99.640625 111.507812 -104.109375 Z M 113.441406 -104.109375 C 113.441406 -99.488281 112.917969 -94.976562 111.867188 -90.566406 L 107.066406 -69.808594 C 104.914062 -60.378906 103.835938 -50.019531 103.835938 -38.730469 C 103.835938 -12.9375 111.777344 -0.0390625 127.65625 -0.0390625 L 128.058594 -0.0390625 L 128.34375 0.246094 L 128.355469 0.222656 C 128.484375 0.253906 128.667969 0.269531 128.898438 0.269531 C 135.332031 0.269531 150.453125 -6.707031 174.265625 -20.664062 L 174.753906 -19.832031 L 174.089844 -20.535156 C 188.140625 -33.769531 195.164062 -47.480469 195.164062 -61.660156 C 195.164062 -68.039062 194.042969 -71.226562 191.796875 -71.226562 C 190.621094 -71.226562 188.21875 -69.359375 184.585938 -65.632812 L 172.039062 -52.773438 C 167.472656 -48.105469 162.910156 -43.800781 158.34375 -39.855469 C 153.617188 -35.777344 149.585938 -33.734375 146.246094 -33.734375 C 143.332031 -33.734375 141.871094 -35.710938 141.871094 -39.660156 C 141.871094 -43.050781 142.554688 -47.3125 143.917969 -52.449219 L 150.421875 -77.699219 C 153.398438 -89.394531 154.886719 -100.9375 154.886719 -112.320312 C 154.886719 -123.492188 151.378906 -132.128906 144.371094 -138.238281 C 137.324219 -144.378906 126.898438 -147.449219 113.09375 -147.449219 C 107.207031 -147.449219 101.835938 -146.640625 96.980469 -145.019531 C 83.570312 -140.550781 72.902344 -131.707031 64.96875 -118.484375 L 63.191406 -119.179688 L 67.867188 -141.617188 L 67.925781 -141.734375 C 70.828125 -147.335938 73.785156 -152.570312 76.792969 -157.445312 C 79.773438 -162.277344 82.445312 -167.007812 84.8125 -171.632812 C 87.160156 -176.230469 89.105469 -180.933594 90.636719 -185.738281 C 92.15625 -190.503906 92.96875 -195.421875 93.070312 -200.492188 C 93.171875 -205.507812 91.496094 -211.769531 88.046875 -219.277344 C 84.703125 -226.550781 80.445312 -230.238281 75.273438 -230.332031 C 70.097656 -230.429688 66.15625 -227.867188 63.449219 -222.648438 C 42.628906 -182.242188 28.714844 -144.316406 21.710938 -108.878906 C 17.175781 -86.011719 14.910156 -59.015625 14.910156 -27.886719 C 14.910156 -16.902344 16.367188 -8.851562 19.277344 -3.730469 C 22.085938 1.207031 25.265625 3.679688 28.816406 3.679688 C 32.574219 3.679688 35.878906 2.894531 38.726562 1.320312 C 41.71875 -0.328125 44.871094 -2.085938 48.183594 -3.949219 C 55.078125 -7.691406 58.523438 -14.84375 58.523438 -25.40625 C 58.523438 -29.925781 58.316406 -34.542969 57.90625 -39.265625 L 56.65625 -53.632812 L 56.671875 -53.746094 C 58.757812 -67.925781 64.070312 -81.835938 72.613281 -95.480469 C 81.273438 -109.316406 90.167969 -116.230469 99.304688 -116.230469 C 108.730469 -116.230469 113.441406 -112.191406 113.441406 -104.109375 Z M 113.441406 -104.109375 "/></g></g></g><g fill="#7ed957" fill-opacity="1"><g transform="translate(245.325829, 296.015232)"><g><path d="M 46.476562 1.898438 C 25.175781 1.898438 14.523438 -17.738281 14.523438 -57.011719 C 14.523438 -78.175781 17.121094 -97.378906 22.3125 -114.613281 C 30.507812 -141.511719 39.90625 -154.960938 50.503906 -154.960938 C 56.917969 -154.960938 61.964844 -150.742188 65.644531 -142.296875 L 64.757812 -141.910156 L 65.636719 -142.320312 C 68.59375 -135.980469 69.964844 -129.742188 69.753906 -123.597656 L 68.785156 -123.628906 L 69.753906 -123.628906 C 69.753906 -115.289062 67.265625 -100.652344 62.292969 -79.71875 L 62.285156 -79.695312 C 57.554688 -61.597656 55.191406 -50.421875 55.191406 -46.167969 C 55.191406 -42.148438 56.148438 -39.410156 58.0625 -37.953125 C 60.058594 -36.429688 62.445312 -35.671875 65.222656 -35.671875 C 67.976562 -35.671875 71.535156 -37.554688 75.898438 -41.324219 C 80.421875 -45.230469 84.949219 -49.496094 89.472656 -54.125 L 102.019531 -66.984375 C 106.03125 -71.101562 108.898438 -73.164062 110.617188 -73.164062 C 114.152344 -73.164062 115.921875 -69.328125 115.921875 -61.660156 C 115.921875 -46.921875 108.539062 -32.589844 93.773438 -18.660156 C 79.019531 -4.746094 63.25 2.109375 46.464844 1.898438 Z M 46.488281 -0.0390625 C 62.753906 0.164062 78.070312 -6.511719 92.445312 -20.070312 C 106.804688 -33.617188 113.984375 -47.480469 113.984375 -61.660156 C 113.984375 -68.039062 112.863281 -71.226562 110.617188 -71.226562 C 109.441406 -71.226562 107.039062 -69.359375 103.40625 -65.632812 L 90.859375 -52.773438 C 86.292969 -48.105469 81.730469 -43.800781 77.164062 -39.855469 C 72.4375 -35.777344 68.457031 -33.734375 65.222656 -33.734375 C 62.011719 -33.734375 59.230469 -34.625 56.890625 -36.410156 C 54.464844 -38.257812 53.253906 -41.507812 53.253906 -46.167969 C 53.253906 -50.589844 55.640625 -61.925781 60.414062 -80.183594 L 61.351562 -79.941406 L 60.40625 -80.164062 C 65.347656 -100.953125 67.816406 -115.441406 67.816406 -123.628906 L 67.816406 -123.644531 L 67.820312 -123.664062 C 68.019531 -129.5 66.707031 -135.445312 63.878906 -141.5 L 63.871094 -141.523438 C 60.527344 -149.191406 56.074219 -153.027344 50.503906 -153.027344 C 40.863281 -153.027344 32.082031 -140.035156 24.164062 -114.054688 C 19.027344 -97 16.460938 -77.988281 16.460938 -57.011719 C 16.460938 -19.03125 26.464844 -0.0390625 46.476562 -0.0390625 Z M 58.378906 -178.550781 C 52.691406 -186.976562 49.847656 -196.039062 49.847656 -205.738281 C 49.847656 -215.386719 51.375 -223.425781 54.433594 -229.859375 C 57.46875 -236.242188 60.359375 -240.96875 63.109375 -244.03125 C 65.984375 -247.242188 69.324219 -248.847656 73.125 -248.847656 C 79.289062 -248.847656 84.835938 -244.394531 89.773438 -235.488281 C 94.605469 -226.769531 97.019531 -219.4375 97.019531 -213.484375 C 97.019531 -202.433594 93.132812 -193.765625 85.351562 -187.480469 C 77.636719 -181.242188 68.910156 -178.125 59.179688 -178.125 L 58.667969 -178.125 Z M 59.984375 -179.632812 L 59.179688 -179.09375 L 59.179688 -180.058594 C 68.453125 -180.058594 76.773438 -183.035156 84.132812 -188.984375 C 91.433594 -194.886719 95.085938 -203.050781 95.085938 -213.484375 C 95.085938 -219.101562 92.75 -226.125 88.078125 -234.550781 C 83.511719 -242.789062 78.527344 -246.910156 73.125 -246.910156 C 69.902344 -246.910156 67.042969 -245.519531 64.550781 -242.738281 C 61.925781 -239.8125 59.136719 -235.242188 56.183594 -229.027344 C 53.25 -222.859375 51.785156 -215.09375 51.785156 -205.738281 C 51.785156 -196.433594 54.515625 -187.734375 59.984375 -179.632812 Z M 59.984375 -179.632812 "/></g></g></g><g fill="#7ed957" fill-opacity="1"><g transform="translate(335.49127, 296.015232)"><g><path d="M 34.9375 -144.738281 C 19.261719 -151.519531 11.425781 -158.21875 11.425781 -164.839844 C 11.425781 -166.730469 11.839844 -168.15625 12.667969 -169.113281 C 13.554688 -170.132812 14.828125 -170.582031 16.496094 -170.453125 L 16.421875 -169.488281 L 16.421875 -170.453125 C 20.253906 -170.453125 24.601562 -169.558594 29.460938 -167.761719 C 34.167969 -166.023438 38.976562 -164.640625 43.886719 -163.617188 L 43.6875 -162.671875 L 42.832031 -163.121094 C 59.871094 -195.332031 79.234375 -216.441406 100.914062 -226.449219 C 108.265625 -229.808594 115.621094 -231.59375 122.980469 -231.804688 L 123.007812 -231.804688 C 137.515625 -231.804688 148.628906 -228.257812 156.351562 -221.167969 C 164.101562 -214.058594 167.976562 -205.402344 167.976562 -195.203125 C 167.976562 -177.042969 158.195312 -163.019531 138.628906 -153.128906 C 122.8125 -145.222656 101.308594 -140.332031 74.121094 -138.464844 L 74.054688 -139.429688 L 74.949219 -139.066406 C 65.289062 -115.222656 60.460938 -89.625 60.460938 -62.28125 C 60.460938 -42.289062 64.992188 -30.714844 74.0625 -27.5625 C 80.371094 -25.394531 85.042969 -25.304688 88.085938 -27.300781 C 91.246094 -29.378906 93.71875 -32.148438 95.5 -35.609375 C 97.292969 -39.089844 98.238281 -44.265625 98.339844 -51.140625 C 98.4375 -57.925781 96.550781 -63.652344 92.675781 -68.324219 C 88.652344 -73.167969 84.789062 -77.648438 81.078125 -81.773438 L 80.726562 -82.164062 L 80.867188 -82.675781 C 82.757812 -89.613281 85.5 -95.40625 89.089844 -100.054688 C 95.886719 -109.1875 101.820312 -113.753906 106.898438 -113.753906 C 111.933594 -113.753906 116.046875 -111.996094 119.234375 -108.476562 C 122.3125 -105.082031 124.800781 -100.847656 126.703125 -95.773438 C 128.582031 -90.765625 130.09375 -85.34375 131.242188 -79.507812 C 132.371094 -73.753906 133.65625 -68.410156 135.09375 -63.480469 C 136.511719 -58.613281 138.28125 -54.570312 140.394531 -51.347656 C 142.375 -48.332031 144.996094 -46.824219 148.261719 -46.824219 C 151.617188 -46.824219 154.644531 -48.128906 157.351562 -50.738281 C 160.195312 -53.480469 162.734375 -56.476562 164.96875 -59.730469 C 167.238281 -63.03125 169.304688 -66.074219 171.160156 -68.859375 C 173.210938 -71.933594 175.390625 -73.472656 177.699219 -73.472656 C 180.027344 -73.472656 182.265625 -71.660156 184.417969 -68.042969 C 186.46875 -64.582031 187.496094 -61.320312 187.496094 -58.25 C 187.496094 -51.433594 184.183594 -43.398438 177.554688 -34.140625 C 170.851562 -24.777344 162.273438 -20.148438 151.816406 -20.257812 C 141.484375 -20.363281 133.445312 -22.542969 127.699219 -26.796875 L 128.277344 -27.578125 L 129.175781 -27.214844 C 125.589844 -18.355469 119.480469 -10.980469 110.851562 -5.085938 C 102.21875 0.808594 90.003906 3.757812 74.207031 3.757812 C 58.402344 3.757812 44.839844 -0.332031 33.515625 -8.511719 C 19.820312 -18.414062 12.976562 -33.753906 12.976562 -54.53125 C 12.976562 -83.796875 20.128906 -114.296875 34.441406 -146.027344 L 35.324219 -145.628906 Z M 35.707031 -146.515625 L 36.609375 -146.125 L 36.207031 -145.230469 C 22.007812 -113.753906 14.910156 -83.519531 14.910156 -54.53125 C 14.910156 -34.414062 21.492188 -19.59375 34.648438 -10.082031 C 45.636719 -2.148438 58.820312 1.820312 74.207031 1.820312 C 89.605469 1.820312 101.457031 -1.015625 109.757812 -6.6875 C 118.066406 -12.359375 123.941406 -19.445312 127.378906 -27.941406 L 127.847656 -29.097656 L 128.851562 -28.355469 C 134.261719 -24.347656 141.921875 -22.292969 151.835938 -22.191406 C 161.621094 -22.09375 169.667969 -26.449219 175.980469 -35.265625 C 182.367188 -44.1875 185.558594 -51.847656 185.558594 -58.25 C 185.558594 -60.964844 184.625 -63.898438 182.753906 -67.050781 C 180.976562 -70.042969 179.292969 -71.535156 177.699219 -71.535156 C 176.082031 -71.535156 174.4375 -70.285156 172.769531 -67.785156 C 170.910156 -64.992188 168.839844 -61.941406 166.566406 -58.632812 C 164.257812 -55.273438 161.632812 -52.175781 158.695312 -49.34375 C 155.613281 -46.375 152.136719 -44.890625 148.261719 -44.890625 C 144.296875 -44.890625 141.136719 -46.6875 138.777344 -50.285156 C 136.554688 -53.667969 134.707031 -57.886719 133.234375 -62.9375 C 131.78125 -67.921875 130.484375 -73.320312 129.339844 -79.132812 C 128.214844 -84.867188 126.730469 -90.183594 124.890625 -95.09375 C 123.074219 -99.933594 120.710938 -103.964844 117.800781 -107.175781 C 114.996094 -110.269531 111.363281 -111.816406 106.898438 -111.816406 C 102.46875 -111.816406 97.046875 -107.5 90.621094 -98.867188 C 87.1875 -94.425781 84.558594 -88.859375 82.734375 -82.164062 L 81.800781 -82.417969 L 82.519531 -83.066406 C 86.246094 -78.925781 90.128906 -74.421875 94.164062 -69.558594 C 98.34375 -64.523438 100.382812 -58.371094 100.273438 -51.109375 C 100.167969 -43.9375 99.152344 -38.472656 97.222656 -34.726562 C 95.285156 -30.957031 92.59375 -27.945312 89.148438 -25.683594 C 85.578125 -23.339844 80.335938 -23.355469 73.425781 -25.730469 C 63.488281 -29.1875 58.523438 -41.371094 58.523438 -62.28125 C 58.523438 -89.878906 63.398438 -115.71875 73.15625 -139.796875 L 73.382812 -140.355469 L 73.988281 -140.398438 C 100.917969 -142.246094 122.175781 -147.066406 137.753906 -154.859375 C 156.613281 -164.386719 166.039062 -177.835938 166.039062 -195.203125 C 166.039062 -204.835938 162.375 -213.015625 155.042969 -219.742188 C 147.6875 -226.492188 137.011719 -229.867188 123.007812 -229.867188 L 123.007812 -230.835938 L 123.039062 -229.867188 C 115.9375 -229.664062 108.835938 -227.9375 101.726562 -224.691406 C 80.441406 -214.867188 61.378906 -194.042969 44.542969 -162.21875 L 44.203125 -161.574219 L 43.492188 -161.722656 C 38.488281 -162.765625 33.585938 -164.171875 28.789062 -165.945312 C 24.148438 -167.660156 20.023438 -168.519531 16.421875 -168.519531 L 16.347656 -168.519531 C 15.328125 -168.597656 14.589844 -168.375 14.132812 -167.84375 C 13.617188 -167.253906 13.363281 -166.25 13.363281 -164.839844 C 13.363281 -159.066406 20.808594 -152.957031 35.707031 -146.515625 Z M 131.957031 -189.597656 C 131.769531 -196.203125 129.457031 -199.503906 125.023438 -199.503906 C 120.21875 -199.503906 113.882812 -195.769531 106.015625 -188.304688 C 98.03125 -180.730469 90.347656 -170.171875 82.960938 -156.628906 L 82.109375 -157.09375 L 81.941406 -158.046875 C 104.226562 -161.929688 119.421875 -168.738281 127.53125 -178.472656 L 128.277344 -177.851562 L 127.511719 -178.445312 C 130.28125 -182.003906 131.761719 -185.746094 131.957031 -189.675781 L 132.925781 -189.625 Z M 133.890625 -189.65625 L 133.894531 -189.617188 L 133.890625 -189.578125 C 133.675781 -185.242188 132.058594 -181.136719 129.042969 -177.257812 L 129.019531 -177.234375 C 120.605469 -167.136719 105.023438 -160.105469 82.277344 -156.140625 L 80.296875 -155.792969 L 81.257812 -157.554688 C 88.746094 -171.277344 96.550781 -181.996094 104.683594 -189.710938 C 112.925781 -197.53125 119.707031 -201.441406 125.023438 -201.441406 C 130.710938 -201.441406 133.667969 -197.511719 133.890625 -189.65625 Z M 133.890625 -189.65625 "/></g></g></g><g fill="#7ed957" fill-opacity="1"><g transform="translate(495.682087, 296.015232)"><g><path d="M 199.542969 -74.09375 C 203.90625 -74.09375 206.085938 -69.019531 206.085938 -58.871094 C 206.085938 -53.53125 203.875 -47.117188 199.445312 -39.632812 C 195.054688 -32.210938 189.363281 -25.417969 182.367188 -19.257812 C 175.375 -13.101562 167.601562 -8.042969 159.050781 -4.078125 C 150.449219 -0.09375 142.050781 1.898438 133.855469 1.898438 C 122.375 1.898438 114.722656 -7.96875 110.90625 -27.703125 L 111.855469 -27.886719 L 112.683594 -27.386719 C 107.238281 -18.378906 100.113281 -10.992188 91.316406 -5.230469 C 82.480469 0.554688 70.683594 3.445312 55.925781 3.445312 C 41.09375 3.445312 29.140625 -1.195312 20.066406 -10.476562 C 10.996094 -19.757812 6.566406 -31.039062 6.777344 -44.324219 C 6.777344 -79.722656 18.558594 -107.640625 42.125 -128.078125 C 52.144531 -136.636719 61.503906 -142.277344 70.199219 -145.003906 C 78.867188 -147.71875 88 -149.074219 97.601562 -149.074219 C 107.269531 -149.074219 115.171875 -147.382812 121.308594 -143.996094 L 120.839844 -143.148438 L 119.96875 -143.570312 C 123.035156 -149.925781 126.632812 -153.101562 130.753906 -153.101562 C 138.246094 -153.101562 145.339844 -149.863281 152.035156 -143.378906 C 158.738281 -136.890625 162.089844 -130.71875 162.089844 -124.867188 L 162.089844 -124.671875 L 162.011719 -124.492188 C 159.105469 -117.636719 154.851562 -109.4375 149.253906 -99.902344 L 148.417969 -100.390625 L 149.371094 -100.226562 C 147.726562 -90.777344 146.90625 -77.507812 146.90625 -60.421875 C 146.90625 -51.929688 147.4375 -45.578125 148.503906 -41.371094 C 149.464844 -37.570312 150.777344 -35.671875 152.445312 -35.671875 C 157.539062 -35.671875 170.320312 -46.3125 190.789062 -67.597656 L 191.484375 -66.925781 L 190.765625 -67.574219 C 194.675781 -71.917969 197.601562 -74.09375 199.542969 -74.09375 Z M 199.542969 -72.15625 C 198.175781 -72.15625 195.730469 -70.195312 192.207031 -66.28125 L 192.195312 -66.265625 L 192.183594 -66.257812 C 171.335938 -44.574219 158.089844 -33.734375 152.445312 -33.734375 C 149.773438 -33.734375 147.832031 -36.121094 146.625 -40.894531 C 145.523438 -45.257812 144.96875 -51.765625 144.96875 -60.421875 C 144.96875 -77.621094 145.800781 -91 147.464844 -100.554688 L 147.492188 -100.730469 L 147.582031 -100.878906 C 153.136719 -110.347656 157.355469 -118.46875 160.230469 -125.246094 L 161.121094 -124.867188 L 160.152344 -124.867188 C 160.152344 -130.171875 156.996094 -135.878906 150.6875 -141.988281 C 144.367188 -148.109375 137.722656 -151.167969 130.753906 -151.167969 C 127.441406 -151.167969 124.429688 -148.355469 121.710938 -142.730469 L 121.269531 -141.808594 L 120.371094 -142.300781 C 114.527344 -145.527344 106.9375 -147.140625 97.601562 -147.140625 C 88.199219 -147.140625 79.257812 -145.8125 70.78125 -143.15625 C 62.332031 -140.507812 53.203125 -134.996094 43.394531 -126.617188 C 20.273438 -106.566406 8.714844 -79.125 8.714844 -44.292969 C 8.511719 -31.546875 12.757812 -20.726562 21.453125 -11.832031 C 30.144531 -2.9375 41.636719 1.511719 55.925781 1.511719 C 70.296875 1.511719 81.742188 -1.277344 90.253906 -6.851562 C 98.808594 -12.453125 105.730469 -19.628906 111.027344 -28.386719 L 112.328125 -30.539062 L 112.804688 -28.070312 C 116.421875 -9.382812 123.4375 -0.0390625 133.855469 -0.0390625 C 141.769531 -0.0390625 149.894531 -1.972656 158.234375 -5.835938 C 166.617188 -9.722656 174.234375 -14.679688 181.085938 -20.710938 C 187.929688 -26.738281 193.492188 -33.375 197.777344 -40.617188 C 202.027344 -47.800781 204.152344 -53.882812 204.152344 -58.871094 C 204.152344 -67.726562 202.613281 -72.15625 199.542969 -72.15625 Z M 54.261719 -54.53125 C 54.261719 -39.273438 59.828125 -31.644531 70.953125 -31.644531 C 83.195312 -31.84375 93.351562 -38.40625 101.429688 -51.328125 C 104.273438 -55.796875 106.609375 -61.289062 108.445312 -67.808594 L 109.375 -67.546875 L 108.40625 -67.546875 C 108.40625 -90.761719 110.484375 -110.671875 114.632812 -127.273438 L 115.574219 -127.039062 L 115.761719 -126.085938 C 99.226562 -122.820312 84.832031 -114.859375 72.582031 -102.195312 C 60.367188 -89.578125 54.261719 -73.6875 54.261719 -54.53125 Z M 52.324219 -54.53125 C 52.324219 -74.210938 58.613281 -90.546875 71.1875 -103.542969 C 83.722656 -116.496094 98.457031 -124.644531 115.386719 -127.988281 L 116.882812 -128.28125 L 116.511719 -126.800781 C 112.402344 -110.355469 110.34375 -90.601562 110.34375 -67.546875 L 110.34375 -67.414062 L 110.308594 -67.285156 C 108.421875 -60.582031 106.011719 -54.921875 103.070312 -50.300781 C 94.621094 -36.785156 83.917969 -29.917969 70.953125 -29.707031 C 58.535156 -29.707031 52.324219 -37.980469 52.324219 -54.53125 Z M 52.324219 -54.53125 "/></g></g></g><g fill="#7ed957" fill-opacity="1"><g transform="translate(676.0195, 296.015232)"><g/></g></g><g fill="#ffffff" fill-opacity="1"><g transform="translate(73.980473, 296.015232)"><g><path d="M 105.117188 -104.109375 C 105.117188 -105.554688 104.886719 -106.46875 104.425781 -106.859375 C 103.605469 -107.554688 101.898438 -107.90625 99.304688 -107.90625 C 93.242188 -107.90625 86.699219 -102.289062 79.671875 -91.0625 C 71.746094 -78.40625 66.828125 -65.5625 64.914062 -52.53125 L 57.632812 -53.605469 L 64.960938 -54.242188 L 66.203125 -39.988281 C 66.632812 -35.023438 66.847656 -30.164062 66.847656 -25.40625 C 66.847656 -11.539062 61.953125 -1.949219 52.15625 3.367188 C 48.898438 5.203125 45.761719 6.949219 42.75 8.613281 C 38.648438 10.875 34.003906 12.007812 28.816406 12.007812 C 22.039062 12.007812 16.445312 8.132812 12.039062 0.382812 C 8.402344 -6.011719 6.585938 -15.433594 6.585938 -27.886719 C 6.585938 -59.558594 8.902344 -87.097656 13.542969 -110.496094 C 20.699219 -146.703125 34.867188 -185.359375 56.046875 -226.460938 C 58.097656 -230.417969 60.730469 -233.429688 63.941406 -235.507812 C 67.3125 -237.6875 71.144531 -238.738281 75.429688 -238.660156 C 84.085938 -238.5 90.816406 -233.195312 95.613281 -222.753906 C 99.59375 -214.089844 101.523438 -206.613281 101.394531 -200.324219 C 101.277344 -194.445312 100.335938 -188.742188 98.570312 -183.207031 C 96.898438 -177.96875 94.785156 -172.847656 92.226562 -167.839844 C 89.761719 -163.019531 86.976562 -158.09375 83.878906 -153.074219 C 80.980469 -148.375 78.125 -143.316406 75.320312 -137.902344 L 68.785156 -141.289062 L 75.992188 -139.789062 L 71.34375 -117.480469 L 64.136719 -118.980469 L 57.828125 -122.765625 C 66.816406 -137.75 78.992188 -147.800781 94.34375 -152.917969 C 100.058594 -154.824219 106.308594 -155.777344 113.09375 -155.777344 C 128.976562 -155.777344 141.226562 -152.023438 149.84375 -144.515625 C 158.757812 -136.746094 163.210938 -126.015625 163.210938 -112.320312 C 163.210938 -100.242188 161.640625 -88.015625 158.492188 -75.648438 L 151.980469 -50.375 C 150.792969 -45.898438 150.199219 -42.324219 150.199219 -39.660156 C 150.199219 -39.390625 150.207031 -39.214844 150.226562 -39.136719 C 150.160156 -39.429688 150.003906 -39.753906 149.753906 -40.109375 C 148.863281 -41.410156 147.691406 -42.0625 146.246094 -42.0625 C 146.609375 -42.0625 147.222656 -42.28125 148.078125 -42.722656 C 149.464844 -43.433594 151.074219 -44.582031 152.902344 -46.160156 C 157.289062 -49.949219 161.683594 -54.09375 166.085938 -58.59375 L 178.628906 -71.445312 C 180.804688 -73.683594 182.710938 -75.410156 184.339844 -76.625 C 186.960938 -78.578125 189.445312 -79.554688 191.796875 -79.554688 C 194.253906 -79.554688 196.429688 -78.789062 198.324219 -77.253906 C 199.839844 -76.027344 201.015625 -74.398438 201.855469 -72.363281 C 202.945312 -69.710938 203.492188 -66.140625 203.492188 -61.660156 C 203.492188 -45.082031 195.59375 -29.351562 179.800781 -14.472656 L 179.195312 -13.902344 L 178.476562 -13.480469 C 166.285156 -6.335938 156.253906 -0.953125 148.390625 2.660156 C 139.773438 6.617188 133.273438 8.597656 128.898438 8.597656 C 126.246094 8.597656 124.097656 7.777344 122.453125 6.132812 L 127.65625 0.929688 L 127.65625 8.289062 C 116.675781 8.289062 108.398438 3.832031 102.824219 -5.085938 C 97.949219 -12.886719 95.511719 -24.105469 95.511719 -38.730469 C 95.511719 -50.644531 96.65625 -61.621094 98.949219 -71.664062 L 103.757812 -92.445312 C 104.664062 -96.253906 105.117188 -100.140625 105.117188 -104.109375 Z M 119.832031 -104.109375 C 119.832031 -98.988281 119.253906 -93.996094 118.09375 -89.125 L 113.296875 -68.386719 C 111.25 -59.425781 110.226562 -49.539062 110.226562 -38.730469 C 110.226562 -26.917969 111.921875 -18.300781 115.304688 -12.886719 C 117.996094 -8.582031 122.113281 -6.429688 127.65625 -6.429688 L 130.707031 -6.429688 L 132.859375 -4.273438 C 131.628906 -5.503906 130.308594 -6.121094 128.898438 -6.121094 C 131.128906 -6.121094 135.578125 -7.652344 142.246094 -10.714844 C 149.667969 -14.125 159.261719 -19.277344 171.03125 -26.179688 L 174.753906 -19.832031 L 169.707031 -25.1875 C 182.417969 -37.160156 188.773438 -49.320312 188.773438 -61.660156 C 188.773438 -64.199219 188.597656 -65.902344 188.246094 -66.757812 C 188.359375 -66.480469 188.632812 -66.164062 189.0625 -65.816406 C 189.871094 -65.164062 190.78125 -64.835938 191.796875 -64.835938 C 192.550781 -64.835938 193.179688 -64.957031 193.679688 -65.195312 C 193.59375 -65.15625 193.414062 -65.03125 193.132812 -64.820312 C 192.128906 -64.074219 190.804688 -62.855469 189.160156 -61.167969 L 176.605469 -48.304688 C 171.917969 -43.507812 167.222656 -39.082031 162.523438 -35.019531 C 156.597656 -29.902344 151.171875 -27.34375 146.246094 -27.34375 C 142.53125 -27.34375 139.65625 -28.820312 137.628906 -31.773438 C 136.195312 -33.855469 135.480469 -36.484375 135.480469 -39.660156 C 135.480469 -43.605469 136.230469 -48.398438 137.726562 -54.046875 L 144.230469 -79.277344 C 147.074219 -90.453125 148.496094 -101.46875 148.496094 -112.320312 C 148.496094 -121.550781 145.722656 -128.585938 140.175781 -133.417969 C 134.328125 -138.511719 125.304688 -141.058594 113.09375 -141.058594 C 107.898438 -141.058594 103.203125 -140.359375 99 -138.957031 C 87.089844 -134.988281 77.570312 -127.066406 70.449219 -115.195312 L 56.933594 -120.480469 L 61.789062 -143.78125 L 62.253906 -144.679688 C 65.230469 -150.417969 68.261719 -155.792969 71.355469 -160.800781 C 74.246094 -165.488281 76.835938 -170.066406 79.121094 -174.539062 C 81.3125 -178.828125 83.121094 -183.210938 84.550781 -187.679688 C 85.882812 -191.855469 86.59375 -196.167969 86.679688 -200.617188 C 86.761719 -204.65625 85.28125 -209.988281 82.238281 -216.609375 C 80.015625 -221.453125 77.652344 -223.898438 75.15625 -223.945312 C 73.863281 -223.96875 72.789062 -223.703125 71.929688 -223.144531 C 70.90625 -222.484375 69.972656 -221.339844 69.128906 -219.71875 C 48.585938 -179.847656 34.867188 -142.488281 27.976562 -107.636719 C 23.527344 -85.179688 21.300781 -58.597656 21.300781 -27.886719 C 21.300781 -18.027344 22.480469 -11.03125 24.832031 -6.890625 C 25.835938 -5.128906 26.800781 -3.894531 27.734375 -3.183594 C 28.148438 -2.867188 28.507812 -2.710938 28.816406 -2.710938 C 31.476562 -2.710938 33.753906 -3.230469 35.640625 -4.273438 C 38.617188 -5.917969 41.78125 -7.679688 45.136719 -9.566406 C 49.800781 -12.097656 52.132812 -17.378906 52.132812 -25.40625 C 52.132812 -29.738281 51.933594 -34.175781 51.539062 -38.714844 L 50.226562 -53.824219 L 50.351562 -54.675781 C 52.566406 -69.738281 58.179688 -84.472656 67.195312 -98.871094 C 77.105469 -114.707031 87.808594 -122.621094 99.304688 -122.621094 C 105.496094 -122.621094 110.371094 -121.113281 113.9375 -118.089844 C 117.867188 -114.761719 119.832031 -110.101562 119.832031 -104.109375 Z M 119.832031 -104.109375 "/></g></g></g><g fill="#ffffff" fill-opacity="1"><g transform="translate(245.325829, 296.015232)"><g><path d="M 46.476562 8.289062 C 39.910156 8.289062 34.09375 6.710938 29.027344 3.554688 C 24.042969 0.445312 19.949219 -4.101562 16.75 -10.085938 C 11.003906 -20.828125 8.132812 -36.46875 8.132812 -57.011719 C 8.132812 -78.804688 10.820312 -98.617188 16.191406 -116.457031 C 20.445312 -130.417969 25.058594 -141.011719 30.035156 -148.25 C 36.039062 -156.984375 42.863281 -161.351562 50.503906 -161.351562 C 55.300781 -161.351562 59.570312 -159.765625 63.320312 -156.585938 C 66.566406 -153.835938 69.292969 -149.921875 71.503906 -144.851562 L 64.757812 -141.910156 L 71.425781 -145.023438 C 74.816406 -137.757812 76.386719 -130.542969 76.140625 -123.375 L 68.785156 -123.628906 L 76.144531 -123.628906 C 76.144531 -114.792969 73.601562 -99.660156 68.507812 -78.238281 L 68.492188 -78.160156 L 68.46875 -78.078125 C 63.878906 -60.511719 61.582031 -49.875 61.582031 -46.167969 C 61.582031 -44.859375 61.707031 -43.859375 61.957031 -43.171875 C 62.007812 -43.035156 62.046875 -42.941406 62.082031 -42.894531 C 62.050781 -42.9375 62.003906 -42.984375 61.9375 -43.035156 C 62.789062 -42.386719 63.882812 -42.0625 65.222656 -42.0625 C 65.519531 -42.0625 66.078125 -42.273438 66.898438 -42.703125 C 68.277344 -43.417969 69.882812 -44.570312 71.722656 -46.160156 C 76.109375 -49.949219 80.503906 -54.09375 84.902344 -58.59375 L 97.449219 -71.445312 C 99.625 -73.683594 101.53125 -75.410156 103.160156 -76.625 C 105.78125 -78.578125 108.265625 -79.554688 110.617188 -79.554688 C 113.074219 -79.554688 115.25 -78.789062 117.144531 -77.253906 C 118.660156 -76.027344 119.835938 -74.398438 120.671875 -72.363281 C 121.765625 -69.710938 122.3125 -66.140625 122.3125 -61.660156 C 122.3125 -45.082031 114.261719 -29.199219 98.160156 -14.011719 C 82.152344 1.085938 64.894531 8.519531 46.386719 8.289062 Z M 46.570312 -6.429688 C 61.109375 -6.246094 74.941406 -12.34375 88.058594 -24.71875 C 101.082031 -37.003906 107.59375 -49.316406 107.59375 -61.660156 C 107.59375 -64.199219 107.417969 -65.902344 107.0625 -66.757812 C 107.179688 -66.480469 107.453125 -66.164062 107.882812 -65.816406 C 108.691406 -65.164062 109.601562 -64.835938 110.617188 -64.835938 C 111.371094 -64.835938 112 -64.957031 112.5 -65.195312 C 112.414062 -65.15625 112.230469 -65.03125 111.953125 -64.820312 C 110.949219 -64.074219 109.625 -62.855469 107.980469 -61.167969 L 95.425781 -48.304688 C 90.738281 -43.507812 86.042969 -39.082031 81.34375 -35.019531 C 75.417969 -29.902344 70.042969 -27.34375 65.222656 -27.34375 C 60.570312 -27.34375 56.503906 -28.671875 53.015625 -31.328125 C 48.914062 -34.453125 46.863281 -39.398438 46.863281 -46.167969 C 46.863281 -51.136719 49.320312 -63.015625 54.230469 -81.800781 L 61.351562 -79.941406 L 54.191406 -81.640625 C 59.015625 -101.945312 61.425781 -115.941406 61.425781 -123.628906 L 61.425781 -123.757812 L 61.429688 -123.882812 C 61.597656 -128.695312 60.484375 -133.667969 58.089844 -138.796875 L 58.011719 -138.96875 C 55.785156 -144.082031 53.28125 -146.636719 50.503906 -146.636719 C 48.023438 -146.636719 45.242188 -144.394531 42.160156 -139.910156 C 38.046875 -133.925781 34.085938 -124.691406 30.285156 -112.210938 C 25.328125 -95.757812 22.851562 -77.359375 22.851562 -57.011719 C 22.851562 -23.289062 30.726562 -6.429688 46.476562 -6.429688 Z M 53.082031 -174.976562 C 46.664062 -184.480469 43.457031 -194.734375 43.457031 -205.738281 C 43.457031 -216.347656 45.191406 -225.300781 48.660156 -232.601562 C 51.960938 -239.542969 55.191406 -244.773438 58.347656 -248.296875 C 62.496094 -252.921875 67.421875 -255.238281 73.125 -255.238281 C 81.796875 -255.238281 89.210938 -249.6875 95.363281 -238.585938 C 100.730469 -228.90625 103.410156 -220.539062 103.410156 -213.484375 C 103.410156 -200.402344 98.730469 -190.074219 89.367188 -182.507812 C 80.480469 -175.324219 70.417969 -171.734375 59.179688 -171.734375 L 55.269531 -171.734375 Z M 65.28125 -183.207031 L 59.179688 -179.09375 L 59.179688 -186.449219 C 66.949219 -186.449219 73.925781 -188.953125 80.117188 -193.957031 C 85.835938 -198.578125 88.695312 -205.085938 88.695312 -213.484375 C 88.695312 -218 86.625 -223.988281 82.488281 -231.453125 C 79.140625 -237.496094 76.019531 -240.519531 73.125 -240.519531 C 71.804688 -240.519531 70.53125 -239.835938 69.308594 -238.472656 C 67.097656 -236.003906 64.644531 -231.941406 61.953125 -226.28125 C 59.433594 -220.980469 58.175781 -214.132812 58.175781 -205.738281 C 58.175781 -197.738281 60.542969 -190.226562 65.28125 -183.207031 Z M 65.28125 -183.207031 "/></g></g></g><g fill="#ffffff" fill-opacity="1"><g transform="translate(335.49127, 296.015232)"><g><path d="M 32.402344 -138.875 C 24.101562 -142.460938 17.769531 -146.085938 13.398438 -149.746094 C 7.824219 -154.421875 5.035156 -159.449219 5.035156 -164.839844 C 5.035156 -168.320312 5.96875 -171.140625 7.839844 -173.300781 C 10.128906 -175.941406 13.179688 -177.117188 16.984375 -176.824219 L 16.421875 -169.488281 L 16.421875 -176.84375 C 21.019531 -176.84375 26.101562 -175.816406 31.675781 -173.753906 C 36.085938 -172.125 40.589844 -170.832031 45.1875 -169.875 L 43.6875 -162.671875 L 37.183594 -166.109375 C 54.898438 -199.59375 75.25 -221.640625 98.238281 -232.25 C 106.386719 -235.976562 114.574219 -237.957031 122.800781 -238.191406 L 122.90625 -238.195312 L 123.007812 -238.195312 C 139.171875 -238.195312 151.726562 -234.089844 160.675781 -225.878906 C 169.800781 -217.5 174.367188 -207.273438 174.367188 -195.203125 C 174.367188 -184.777344 171.523438 -175.496094 165.835938 -167.359375 C 160.324219 -159.480469 152.21875 -152.835938 141.511719 -147.425781 C 124.914062 -139.128906 102.597656 -134.015625 74.558594 -132.089844 L 74.054688 -139.429688 L 80.875 -136.667969 C 71.523438 -113.59375 66.847656 -88.796875 66.847656 -62.28125 C 66.847656 -53 67.863281 -45.828125 69.886719 -40.765625 C 71.429688 -36.90625 73.523438 -34.515625 76.160156 -33.597656 C 78.699219 -32.726562 80.8125 -32.28125 82.496094 -32.261719 C 83.480469 -32.253906 84.175781 -32.378906 84.578125 -32.644531 C 86.804688 -34.105469 88.550781 -36.066406 89.820312 -38.535156 C 91.152344 -41.125 91.863281 -45.359375 91.949219 -51.234375 C 92.023438 -56.445312 90.628906 -60.78125 87.757812 -64.242188 C 83.789062 -69.019531 79.980469 -73.4375 76.328125 -77.496094 L 73.644531 -80.480469 L 74.699219 -84.355469 C 76.816406 -92.109375 79.925781 -98.644531 84.03125 -103.960938 C 92.058594 -114.75 99.683594 -120.144531 106.898438 -120.144531 C 113.824219 -120.144531 119.515625 -117.683594 123.96875 -112.769531 C 127.59375 -108.769531 130.5 -103.851562 132.6875 -98.015625 C 134.691406 -92.679688 136.296875 -86.921875 137.511719 -80.738281 C 138.605469 -75.171875 139.84375 -70.015625 141.226562 -65.269531 C 142.46875 -61.015625 143.972656 -57.542969 145.738281 -54.851562 C 146.453125 -53.761719 147.296875 -53.214844 148.261719 -53.214844 C 149.898438 -53.214844 151.449219 -53.921875 152.914062 -55.335938 C 155.449219 -57.78125 157.710938 -60.453125 159.703125 -63.351562 C 161.957031 -66.625 164.003906 -69.644531 165.84375 -72.402344 C 169.15625 -77.375 173.109375 -79.863281 177.699219 -79.863281 C 182.453125 -79.863281 186.523438 -77.011719 189.914062 -71.304688 C 192.5625 -66.839844 193.886719 -62.488281 193.886719 -58.25 C 193.886719 -50.066406 190.175781 -40.789062 182.75 -30.417969 C 174.757812 -19.253906 164.425781 -13.738281 151.75 -13.867188 C 140.039062 -13.984375 130.753906 -16.585938 123.898438 -21.664062 L 128.277344 -27.578125 L 135.097656 -24.816406 C 131.03125 -14.765625 124.148438 -6.429688 114.457031 0.191406 C 104.734375 6.828125 91.320312 10.148438 74.207031 10.148438 C 57.027344 10.148438 42.214844 5.65625 29.773438 -3.328125 C 14.3125 -14.507812 6.585938 -31.578125 6.585938 -54.53125 C 6.585938 -84.714844 13.925781 -116.085938 28.613281 -148.652344 L 35.324219 -145.628906 Z M 38.242188 -152.382812 L 45.101562 -149.417969 L 42.03125 -142.601562 C 28.210938 -111.960938 21.300781 -82.605469 21.300781 -54.53125 C 21.300781 -36.589844 27 -23.5 38.390625 -15.261719 C 48.261719 -8.132812 60.199219 -4.570312 74.207031 -4.570312 C 88.289062 -4.570312 98.9375 -7.035156 106.15625 -11.964844 C 113.398438 -16.910156 118.5 -23.035156 121.457031 -30.335938 L 125.019531 -39.144531 L 132.65625 -33.488281 C 136.957031 -30.304688 143.371094 -28.671875 151.898438 -28.582031 C 159.46875 -28.503906 165.765625 -31.972656 170.785156 -38.988281 C 176.375 -46.792969 179.167969 -53.214844 179.167969 -58.25 C 179.167969 -59.796875 178.53125 -61.644531 177.257812 -63.789062 C 176.699219 -64.730469 176.246094 -65.34375 175.902344 -65.636719 C 176.289062 -65.308594 176.886719 -65.144531 177.699219 -65.144531 C 178.316406 -65.144531 178.792969 -65.269531 179.128906 -65.515625 C 178.878906 -65.332031 178.535156 -64.90625 178.089844 -64.238281 C 176.210938 -61.421875 174.125 -58.34375 171.832031 -55.011719 C 169.28125 -51.296875 166.378906 -47.875 163.128906 -44.742188 C 158.8125 -40.578125 153.855469 -38.5 148.261719 -38.5 C 142 -38.5 137.054688 -41.257812 133.433594 -46.777344 C 130.863281 -50.695312 128.75 -55.488281 127.097656 -61.148438 C 125.589844 -66.316406 124.25 -71.902344 123.070312 -77.902344 C 122.011719 -83.289062 120.625 -88.269531 118.90625 -92.847656 C 117.378906 -96.929688 115.429688 -100.273438 113.0625 -102.886719 C 111.527344 -104.578125 109.472656 -105.425781 106.898438 -105.425781 C 106.210938 -105.425781 105.113281 -104.835938 103.605469 -103.65625 C 101.285156 -101.84375 98.644531 -98.945312 95.679688 -94.960938 C 92.761719 -91.1875 90.503906 -86.359375 88.898438 -80.484375 L 81.800781 -82.417969 L 87.269531 -87.34375 C 91.054688 -83.136719 94.992188 -78.570312 99.082031 -73.640625 C 104.265625 -67.390625 106.792969 -59.851562 106.664062 -51.015625 C 106.542969 -42.84375 105.292969 -36.4375 102.90625 -31.800781 C 100.457031 -27.039062 97.039062 -23.21875 92.652344 -20.339844 C 87.335938 -16.851562 80.226562 -16.636719 71.324219 -19.695312 C 58.53125 -24.148438 52.132812 -38.339844 52.132812 -62.28125 C 52.132812 -90.707031 57.164062 -117.347656 67.234375 -142.195312 L 68.960938 -146.457031 L 73.550781 -146.773438 C 99.628906 -148.566406 120.070312 -153.160156 134.871094 -160.5625 C 143.378906 -164.859375 149.675781 -169.9375 153.773438 -175.796875 C 157.691406 -181.398438 159.648438 -187.867188 159.648438 -195.203125 C 159.648438 -202.960938 156.671875 -209.574219 150.722656 -215.035156 C 144.589844 -220.664062 135.351562 -223.476562 123.007812 -223.476562 L 123.007812 -230.835938 L 123.21875 -223.480469 C 116.984375 -223.300781 110.710938 -221.769531 104.402344 -218.886719 C 84.425781 -209.667969 66.355469 -189.78125 50.191406 -159.230469 L 47.605469 -154.335938 L 42.1875 -155.464844 C 36.871094 -156.574219 31.667969 -158.066406 26.574219 -159.949219 C 22.648438 -161.402344 19.261719 -162.128906 16.421875 -162.128906 L 16.140625 -162.128906 L 15.859375 -162.148438 C 16.175781 -162.125 16.550781 -162.1875 16.988281 -162.332031 C 17.757812 -162.589844 18.417969 -163.03125 18.960938 -163.660156 C 19.351562 -164.109375 19.609375 -164.566406 19.738281 -165.027344 C 19.753906 -165.085938 19.765625 -165.125 19.765625 -165.140625 C 19.757812 -165.066406 19.753906 -164.964844 19.753906 -164.839844 C 19.753906 -164.660156 19.875 -164.371094 20.117188 -163.96875 C 20.652344 -163.089844 21.5625 -162.109375 22.851562 -161.027344 C 26.125 -158.285156 31.257812 -155.402344 38.242188 -152.382812 Z M 125.570312 -189.417969 C 125.507812 -191.511719 125.269531 -192.847656 124.847656 -193.425781 C 124.929688 -193.3125 125.058594 -193.214844 125.234375 -193.132812 C 125.289062 -193.109375 125.324219 -193.09375 125.34375 -193.089844 C 125.269531 -193.105469 125.164062 -193.113281 125.023438 -193.113281 C 123.816406 -193.113281 122.148438 -192.492188 120.015625 -191.246094 C 117.226562 -189.625 114.027344 -187.097656 110.414062 -183.667969 C 102.917969 -176.558594 95.636719 -166.523438 88.570312 -153.570312 L 82.109375 -157.09375 L 80.847656 -164.34375 C 101.585938 -167.957031 115.511719 -174.03125 122.625 -182.5625 L 128.277344 -177.851562 L 122.46875 -182.371094 C 124.410156 -184.867188 125.445312 -187.410156 125.574219 -189.996094 L 132.925781 -189.625 Z M 140.28125 -189.835938 L 140.289062 -189.546875 L 140.273438 -189.257812 C 139.992188 -183.582031 137.925781 -178.273438 134.085938 -173.335938 L 133.929688 -173.140625 C 124.515625 -161.84375 107.664062 -154.078125 83.375 -149.84375 L 68.34375 -147.222656 L 75.648438 -160.617188 C 83.457031 -174.929688 91.667969 -186.171875 100.285156 -194.34375 C 109.757812 -203.335938 118.003906 -207.832031 125.023438 -207.832031 C 130.050781 -207.832031 133.957031 -205.917969 136.742188 -202.09375 C 138.953125 -199.058594 140.132812 -194.972656 140.28125 -189.835938 Z M 140.28125 -189.835938 "/></g></g></g><g fill="#ffffff" fill-opacity="1"><g transform="translate(495.682087, 296.015232)"><g><path d="M 199.542969 -80.484375 C 208.164062 -80.484375 212.476562 -73.277344 212.476562 -58.871094 C 212.476562 -52.363281 209.96875 -44.867188 204.945312 -36.378906 C 200.210938 -28.375 194.09375 -21.070312 186.589844 -14.460938 C 179.136719 -7.898438 170.851562 -2.503906 161.734375 1.71875 C 152.285156 6.097656 142.992188 8.289062 133.855469 8.289062 C 125.953125 8.289062 119.433594 4.921875 114.292969 -1.808594 C 109.929688 -7.527344 106.707031 -15.753906 104.628906 -26.488281 L 111.855469 -27.886719 L 118.152344 -24.078125 C 112.203125 -14.242188 104.425781 -6.175781 94.816406 0.113281 C 84.917969 6.597656 71.953125 9.835938 55.925781 9.835938 C 39.300781 9.835938 25.824219 4.554688 15.496094 -6.011719 C 5.183594 -16.5625 0.148438 -29.367188 0.386719 -44.425781 C 0.386719 -81.703125 12.902344 -111.195312 37.9375 -132.90625 C 48.644531 -142.050781 58.761719 -148.117188 68.289062 -151.101562 C 77.578125 -154.011719 87.347656 -155.464844 97.601562 -155.464844 C 108.367188 -155.464844 117.296875 -153.507812 124.394531 -149.59375 L 120.839844 -143.148438 L 114.214844 -146.347656 C 118.445312 -155.113281 123.957031 -159.492188 130.753906 -159.492188 C 139.972656 -159.492188 148.546875 -155.652344 156.480469 -147.972656 C 164.480469 -140.226562 168.480469 -132.523438 168.480469 -124.867188 L 168.480469 -123.371094 L 167.894531 -121.996094 C 164.878906 -114.886719 160.5 -106.441406 154.761719 -96.664062 L 148.417969 -100.390625 L 155.667969 -99.128906 C 154.085938 -90.042969 153.296875 -77.140625 153.296875 -60.421875 C 153.296875 -52.457031 153.765625 -46.632812 154.699219 -42.9375 C 154.996094 -41.761719 155.25 -41.035156 155.460938 -40.757812 C 154.800781 -41.628906 153.796875 -42.0625 152.445312 -42.0625 C 152.265625 -42.0625 152.121094 -42.050781 152.015625 -42.027344 C 152.0625 -42.039062 152.148438 -42.066406 152.269531 -42.109375 C 152.777344 -42.296875 153.417969 -42.617188 154.195312 -43.070312 C 156.148438 -44.214844 158.601562 -46 161.546875 -48.433594 C 167.835938 -53.625 176.046875 -61.488281 186.179688 -72.027344 L 191.484375 -66.925781 L 186.015625 -71.851562 C 188.175781 -74.25 190.105469 -76.101562 191.800781 -77.40625 C 194.46875 -79.457031 197.046875 -80.484375 199.542969 -80.484375 Z M 199.542969 -65.765625 C 200.238281 -65.765625 200.8125 -65.875 201.273438 -66.09375 C 201.199219 -66.058594 201.035156 -65.941406 200.773438 -65.742188 C 199.789062 -64.984375 198.515625 -63.738281 196.957031 -62.003906 L 196.875 -61.914062 L 196.789062 -61.828125 C 186.265625 -50.882812 177.640625 -42.632812 170.917969 -37.082031 C 167.359375 -34.144531 164.257812 -31.90625 161.617188 -30.363281 C 158.171875 -28.351562 155.117188 -27.34375 152.445312 -27.34375 C 148.925781 -27.34375 146.023438 -28.851562 143.738281 -31.859375 C 142.320312 -33.726562 141.21875 -36.214844 140.429688 -39.328125 C 139.195312 -44.207031 138.578125 -51.238281 138.578125 -60.421875 C 138.578125 -77.988281 139.441406 -91.730469 141.167969 -101.652344 L 141.394531 -102.964844 L 142.070312 -104.117188 C 147.488281 -113.34375 151.578125 -121.21875 154.347656 -127.742188 L 161.121094 -124.867188 L 153.761719 -124.867188 C 153.761719 -128.367188 151.253906 -132.542969 146.242188 -137.398438 C 141.160156 -142.316406 136 -144.777344 130.753906 -144.777344 C 130.828125 -144.777344 130.886719 -144.785156 130.929688 -144.804688 C 130.8125 -144.753906 130.644531 -144.628906 130.429688 -144.4375 C 129.484375 -143.578125 128.5 -142.085938 127.46875 -139.949219 L 124.089844 -132.953125 L 117.285156 -136.707031 C 112.402344 -139.402344 105.839844 -140.75 97.601562 -140.75 C 88.851562 -140.75 80.546875 -139.519531 72.691406 -137.058594 C 65.074219 -134.671875 56.703125 -129.582031 47.582031 -121.789062 C 25.929688 -103.011719 15.105469 -77.144531 15.105469 -44.191406 C 14.929688 -33.222656 18.570312 -23.925781 26.023438 -16.296875 C 33.460938 -8.6875 43.429688 -4.878906 55.925781 -4.878906 C 69.027344 -4.878906 79.300781 -7.320312 86.753906 -12.199219 C 94.496094 -17.269531 100.765625 -23.765625 105.558594 -31.695312 L 115.449219 -48.050781 L 119.078125 -29.285156 C 122.027344 -14.046875 126.953125 -6.429688 133.855469 -6.429688 C 140.828125 -6.429688 148.058594 -8.164062 155.546875 -11.632812 C 163.371094 -15.261719 170.476562 -19.882812 176.863281 -25.507812 C 183.199219 -31.085938 188.335938 -37.207031 192.277344 -43.871094 C 195.933594 -50.050781 197.761719 -55.050781 197.761719 -58.871094 C 197.761719 -62.695312 197.464844 -65.367188 196.871094 -66.878906 C 196.824219 -67.003906 196.792969 -67.078125 196.777344 -67.101562 C 196.875 -66.949219 197.019531 -66.792969 197.210938 -66.632812 C 197.886719 -66.054688 198.664062 -65.765625 199.542969 -65.765625 Z M 60.652344 -54.53125 C 60.652344 -48.199219 61.644531 -43.695312 63.625 -41.019531 C 65.097656 -39.027344 67.539062 -38.035156 70.953125 -38.035156 C 80.808594 -38.195312 89.160156 -43.757812 96.007812 -54.714844 C 98.535156 -58.683594 100.628906 -63.625 102.292969 -69.539062 L 109.375 -67.546875 L 102.015625 -67.546875 C 102.015625 -91.285156 104.15625 -111.710938 108.433594 -128.820312 L 115.574219 -127.039062 L 117 -119.816406 C 101.773438 -116.8125 88.5 -109.457031 77.171875 -97.75 C 66.160156 -86.371094 60.652344 -71.964844 60.652344 -54.53125 Z M 45.933594 -54.53125 C 45.933594 -75.933594 52.820312 -93.753906 66.597656 -107.988281 C 80.058594 -121.898438 95.910156 -130.652344 114.148438 -134.257812 L 125.523438 -136.503906 L 122.710938 -125.253906 C 118.726562 -109.3125 116.734375 -90.078125 116.734375 -67.546875 L 116.734375 -66.53125 L 116.460938 -65.554688 C 114.40625 -58.25 111.75 -52.035156 108.488281 -46.914062 C 98.8125 -31.433594 86.300781 -23.566406 70.953125 -23.316406 C 62.597656 -23.316406 56.207031 -26.296875 51.792969 -32.261719 C 47.886719 -37.539062 45.933594 -44.960938 45.933594 -54.53125 Z M 45.933594 -54.53125 "/></g></g></g><g fill="#ffffff" fill-opacity="1"><g transform="translate(676.0195, 296.015232)"><g/></g></g><g fill="#7ed957" fill-opacity="1"><g transform="translate(73.980473, 296.015232)"><g><path d="M 112.46875 -104.109375 C 112.46875 -111.546875 108.078125 -115.265625 99.296875 -115.265625 C 90.523438 -115.265625 81.90625 -108.5 73.4375 -94.96875 C 64.96875 -81.4375 59.695312 -67.648438 57.625 -53.609375 C 58.039062 -48.859375 58.453125 -44.101562 58.859375 -39.34375 C 59.273438 -34.59375 59.484375 -29.945312 59.484375 -25.40625 C 59.484375 -14.457031 55.867188 -7.019531 48.640625 -3.09375 C 45.335938 -1.238281 42.1875 0.507812 39.1875 2.15625 C 36.195312 3.8125 32.738281 4.640625 28.8125 4.640625 C 24.882812 4.640625 21.421875 2.007812 18.421875 -3.25 C 15.429688 -8.519531 13.9375 -16.734375 13.9375 -27.890625 C 13.9375 -59.078125 16.210938 -86.132812 20.765625 -109.0625 C 27.785156 -144.59375 41.726562 -182.601562 62.59375 -223.09375 C 65.476562 -228.664062 69.707031 -231.398438 75.28125 -231.296875 C 80.863281 -231.191406 85.410156 -227.316406 88.921875 -219.671875 C 92.429688 -212.035156 94.132812 -205.632812 94.03125 -200.46875 C 93.925781 -195.300781 93.097656 -190.289062 91.546875 -185.4375 C 90.003906 -180.582031 88.046875 -175.832031 85.671875 -171.1875 C 83.296875 -166.539062 80.609375 -161.789062 77.609375 -156.9375 C 74.617188 -152.082031 71.675781 -146.863281 68.78125 -141.28125 L 64.140625 -118.984375 C 72.191406 -132.410156 83.035156 -141.394531 96.671875 -145.9375 C 101.628906 -147.59375 107.101562 -148.421875 113.09375 -148.421875 C 127.132812 -148.421875 137.769531 -145.269531 145 -138.96875 C 152.226562 -132.664062 155.84375 -123.78125 155.84375 -112.3125 C 155.84375 -100.851562 154.34375 -89.234375 151.34375 -77.453125 C 148.351562 -65.679688 146.1875 -57.265625 144.84375 -52.203125 C 143.507812 -47.148438 142.84375 -42.96875 142.84375 -39.65625 C 142.84375 -36.351562 143.976562 -34.703125 146.25 -34.703125 C 149.34375 -34.703125 153.160156 -36.664062 157.703125 -40.59375 C 162.253906 -44.519531 166.800781 -48.804688 171.34375 -53.453125 C 175.882812 -58.097656 180.066406 -62.378906 183.890625 -66.296875 C 187.710938 -70.222656 190.347656 -72.1875 191.796875 -72.1875 C 194.679688 -72.1875 196.125 -68.675781 196.125 -61.65625 C 196.125 -47.195312 189 -33.253906 174.75 -19.828125 C 150.789062 -5.785156 135.503906 1.234375 128.890625 1.234375 C 128.273438 1.234375 127.863281 1.128906 127.65625 0.921875 C 111.132812 0.921875 102.875 -12.296875 102.875 -38.734375 C 102.875 -50.085938 103.957031 -60.515625 106.125 -70.015625 C 108.289062 -79.523438 109.890625 -86.445312 110.921875 -90.78125 C 111.953125 -95.125 112.46875 -99.566406 112.46875 -104.109375 Z M 112.46875 -104.109375 "/></g></g></g><g fill="#7ed957" fill-opacity="1"><g transform="translate(245.325829, 296.015232)"><g><path d="M 46.484375 0.921875 C 25.828125 0.921875 15.5 -18.390625 15.5 -57.015625 C 15.5 -78.078125 18.078125 -97.179688 23.234375 -114.328125 C 31.296875 -140.773438 40.382812 -154 50.5 -154 C 56.488281 -154 61.238281 -149.96875 64.75 -141.90625 C 67.644531 -135.707031 68.988281 -129.613281 68.78125 -123.625 C 68.78125 -115.363281 66.300781 -100.800781 61.34375 -79.9375 C 56.59375 -61.757812 54.21875 -50.5 54.21875 -46.15625 C 54.21875 -41.820312 55.300781 -38.828125 57.46875 -37.171875 C 59.644531 -35.523438 62.226562 -34.703125 65.21875 -34.703125 C 68.21875 -34.703125 71.988281 -36.664062 76.53125 -40.59375 C 81.070312 -44.519531 85.613281 -48.804688 90.15625 -53.453125 C 94.707031 -58.097656 98.894531 -62.378906 102.71875 -66.296875 C 106.539062 -70.222656 109.171875 -72.1875 110.609375 -72.1875 C 113.503906 -72.1875 114.953125 -68.675781 114.953125 -61.65625 C 114.953125 -47.195312 107.671875 -33.097656 93.109375 -19.359375 C 78.546875 -5.628906 63.003906 1.128906 46.484375 0.921875 Z M 59.1875 -179.09375 C 53.601562 -187.351562 50.8125 -196.234375 50.8125 -205.734375 C 50.8125 -215.234375 52.304688 -223.132812 55.296875 -229.4375 C 58.296875 -235.738281 61.140625 -240.382812 63.828125 -243.375 C 66.515625 -246.375 69.613281 -247.875 73.125 -247.875 C 78.90625 -247.875 84.171875 -243.585938 88.921875 -235.015625 C 93.671875 -226.441406 96.046875 -219.265625 96.046875 -213.484375 C 96.046875 -202.742188 92.273438 -194.328125 84.734375 -188.234375 C 77.203125 -182.140625 68.6875 -179.09375 59.1875 -179.09375 Z M 59.1875 -179.09375 "/></g></g></g><g fill="#7ed957" fill-opacity="1"><g transform="translate(335.49127, 296.015232)"><g><path d="M 35.328125 -145.625 C 20.035156 -152.238281 12.390625 -158.644531 12.390625 -164.84375 C 12.390625 -168.144531 13.734375 -169.691406 16.421875 -169.484375 C 20.140625 -169.484375 24.375 -168.601562 29.125 -166.84375 C 33.875 -165.09375 38.726562 -163.703125 43.6875 -162.671875 C 60.625 -194.679688 79.832031 -215.644531 101.3125 -225.5625 C 108.539062 -228.875 115.773438 -230.628906 123.015625 -230.828125 C 137.265625 -230.828125 148.15625 -227.367188 155.6875 -220.453125 C 163.226562 -213.535156 167 -205.117188 167 -195.203125 C 167 -177.441406 157.394531 -163.707031 138.1875 -154 C 122.488281 -146.144531 101.109375 -141.289062 74.046875 -139.4375 C 64.335938 -115.46875 59.484375 -89.75 59.484375 -62.28125 C 59.484375 -41.832031 64.238281 -29.953125 73.75 -26.640625 C 80.351562 -24.367188 85.304688 -24.316406 88.609375 -26.484375 C 91.921875 -28.660156 94.503906 -31.554688 96.359375 -35.171875 C 98.222656 -38.785156 99.203125 -44.101562 99.296875 -51.125 C 99.398438 -58.144531 97.4375 -64.082031 93.40625 -68.9375 C 89.382812 -73.789062 85.515625 -78.285156 81.796875 -82.421875 C 83.660156 -89.234375 86.347656 -94.910156 89.859375 -99.453125 C 96.460938 -108.335938 102.140625 -112.78125 106.890625 -112.78125 C 111.640625 -112.78125 115.515625 -111.128906 118.515625 -107.828125 C 121.515625 -104.523438 123.941406 -100.394531 125.796875 -95.4375 C 127.648438 -90.476562 129.144531 -85.101562 130.28125 -79.3125 C 131.425781 -73.53125 132.71875 -68.160156 134.15625 -63.203125 C 135.601562 -58.242188 137.410156 -54.113281 139.578125 -50.8125 C 141.753906 -47.507812 144.648438 -45.859375 148.265625 -45.859375 C 151.878906 -45.859375 155.128906 -47.25 158.015625 -50.03125 C 160.910156 -52.820312 163.492188 -55.867188 165.765625 -59.171875 C 168.035156 -62.484375 170.097656 -65.53125 171.953125 -68.3125 C 173.816406 -71.101562 175.726562 -72.5 177.6875 -72.5 C 179.65625 -72.5 181.617188 -70.847656 183.578125 -67.546875 C 185.546875 -64.242188 186.53125 -61.144531 186.53125 -58.25 C 186.53125 -51.632812 183.273438 -43.78125 176.765625 -34.6875 C 170.253906 -25.601562 161.9375 -21.113281 151.8125 -21.21875 C 141.695312 -21.320312 133.851562 -23.441406 128.28125 -27.578125 C 124.769531 -18.898438 118.773438 -11.671875 110.296875 -5.890625 C 101.828125 -0.109375 89.796875 2.78125 74.203125 2.78125 C 58.609375 2.78125 45.234375 -1.242188 34.078125 -9.296875 C 20.648438 -19.003906 13.9375 -34.082031 13.9375 -54.53125 C 13.9375 -83.65625 21.066406 -114.019531 35.328125 -145.625 Z M 132.921875 -189.625 C 132.710938 -196.851562 130.078125 -200.46875 125.015625 -200.46875 C 119.960938 -200.46875 113.40625 -196.644531 105.34375 -189 C 97.289062 -181.363281 89.546875 -170.726562 82.109375 -157.09375 C 104.617188 -161.019531 120.007812 -167.9375 128.28125 -177.84375 C 131.164062 -181.5625 132.710938 -185.488281 132.921875 -189.625 Z M 132.921875 -189.625 "/></g></g></g><g fill="#7ed957" fill-opacity="1"><g transform="translate(495.682087, 296.015232)"><g><path d="M 199.546875 -73.125 C 203.253906 -73.125 205.109375 -68.375 205.109375 -58.875 C 205.109375 -53.707031 202.941406 -47.457031 198.609375 -40.125 C 194.273438 -32.789062 188.644531 -26.078125 181.71875 -19.984375 C 174.800781 -13.890625 167.109375 -8.878906 158.640625 -4.953125 C 150.171875 -1.035156 141.910156 0.921875 133.859375 0.921875 C 122.910156 0.921875 115.578125 -8.679688 111.859375 -27.890625 C 106.484375 -19.003906 99.457031 -11.71875 90.78125 -6.03125 C 82.101562 -0.351562 70.484375 2.484375 55.921875 2.484375 C 41.359375 2.484375 29.632812 -2.054688 20.75 -11.140625 C 11.875 -20.234375 7.539062 -31.289062 7.75 -44.3125 C 7.75 -79.425781 19.421875 -107.101562 42.765625 -127.34375 C 52.671875 -135.8125 61.910156 -141.390625 70.484375 -144.078125 C 79.054688 -146.765625 88.09375 -148.109375 97.59375 -148.109375 C 107.101562 -148.109375 114.851562 -146.453125 120.84375 -143.140625 C 123.726562 -149.140625 127.03125 -152.140625 130.75 -152.140625 C 137.976562 -152.140625 144.847656 -148.988281 151.359375 -142.6875 C 157.867188 -136.382812 161.125 -130.441406 161.125 -124.859375 C 158.226562 -118.046875 153.992188 -109.890625 148.421875 -100.390625 C 146.765625 -90.890625 145.9375 -77.566406 145.9375 -60.421875 C 145.9375 -43.273438 148.101562 -34.703125 152.4375 -34.703125 C 157.8125 -34.703125 170.828125 -45.441406 191.484375 -66.921875 C 195.203125 -71.054688 197.890625 -73.125 199.546875 -73.125 Z M 53.296875 -54.53125 C 53.296875 -38.625 59.179688 -30.671875 70.953125 -30.671875 C 83.554688 -30.878906 93.988281 -37.59375 102.25 -50.8125 C 105.144531 -55.351562 107.519531 -60.929688 109.375 -67.546875 C 109.375 -90.679688 111.441406 -110.507812 115.578125 -127.03125 C 98.835938 -123.726562 84.269531 -115.671875 71.875 -102.859375 C 59.488281 -90.054688 53.296875 -73.945312 53.296875 -54.53125 Z M 53.296875 -54.53125 "/></g></g></g><g fill="#7ed957" fill-opacity="1"><g transform="translate(676.0195, 296.015232)"><g/></g></g></svg>